<mxfile host="app.diagrams.net" modified="2024-01-24T02:14:18.686Z" agent="Mozilla/5.0 (X11; Linux x86_64) AppleWebKit/537.36 (KHTML, like Gecko) Chrome/120.0.0.0 Safari/537.36" etag="jEsqOSFSnnHFI-egN7JZ" version="22.1.18" type="dropbox">
  <diagram name="Page-1" id="DHnv2yqsl_uk6F5zbvv3">
    <mxGraphModel dx="1396" dy="724" grid="1" gridSize="10" guides="1" tooltips="1" connect="1" arrows="1" fold="1" page="1" pageScale="1" pageWidth="850" pageHeight="1100" math="0" shadow="0">
      <root>
        <mxCell id="0" />
        <mxCell id="1" parent="0" />
        <mxCell id="oFuWDQxyRR_hA7nWu7py-1" value="Start Game Activity" style="html=1;dashed=0;whiteSpace=wrap;align=left;verticalAlign=top;" vertex="1" parent="1">
          <mxGeometry x="70" y="20" width="670" height="770" as="geometry" />
        </mxCell>
        <mxCell id="oFuWDQxyRR_hA7nWu7py-2" value="WebSocket Start-Game Signal" style="html=1;shape=mxgraph.infographic.ribbonSimple;notch1=20;notch2=0;align=center;verticalAlign=middle;fontSize=14;fontStyle=0;fillColor=#FFFFFF;flipH=0;spacingRight=0;spacingLeft=14;whiteSpace=wrap;" vertex="1" parent="1">
          <mxGeometry x="10" y="75" width="120" height="60" as="geometry" />
        </mxCell>
        <mxCell id="oFuWDQxyRR_hA7nWu7py-3" value="Check to make sure that the user requesting the game start is in fact the game owner." style="html=1;align=center;verticalAlign=top;rounded=1;absoluteArcSize=1;arcSize=10;dashed=0;whiteSpace=wrap;" vertex="1" parent="1">
          <mxGeometry x="180" y="70" width="140" height="70" as="geometry" />
        </mxCell>
        <mxCell id="oFuWDQxyRR_hA7nWu7py-4" value="" style="endArrow=open;startArrow=none;endFill=0;startFill=0;endSize=8;html=1;verticalAlign=bottom;labelBackgroundColor=none;strokeWidth=1;rounded=0;" edge="1" parent="1" source="oFuWDQxyRR_hA7nWu7py-2" target="oFuWDQxyRR_hA7nWu7py-3">
          <mxGeometry width="160" relative="1" as="geometry">
            <mxPoint x="340" y="20" as="sourcePoint" />
            <mxPoint x="500" y="20" as="targetPoint" />
          </mxGeometry>
        </mxCell>
        <mxCell id="oFuWDQxyRR_hA7nWu7py-5" value="" style="rhombus;" vertex="1" parent="1">
          <mxGeometry x="420" y="90" width="30" height="30" as="geometry" />
        </mxCell>
        <mxCell id="oFuWDQxyRR_hA7nWu7py-6" value="[else]" style="endArrow=open;startArrow=none;endFill=0;startFill=0;endSize=8;html=1;verticalAlign=bottom;labelBackgroundColor=none;strokeWidth=1;rounded=0;" edge="1" parent="1" source="oFuWDQxyRR_hA7nWu7py-5" target="oFuWDQxyRR_hA7nWu7py-7">
          <mxGeometry width="160" relative="1" as="geometry">
            <mxPoint x="500" y="115" as="sourcePoint" />
            <mxPoint x="570" y="110" as="targetPoint" />
          </mxGeometry>
        </mxCell>
        <mxCell id="oFuWDQxyRR_hA7nWu7py-7" value="Inform owner the game is no longer startable." style="html=1;shape=mxgraph.infographic.ribbonSimple;notch1=0;notch2=20;align=center;verticalAlign=middle;fontSize=14;fontStyle=0;fillColor=#FFFFFF;whiteSpace=wrap;" vertex="1" parent="1">
          <mxGeometry x="640" y="85" width="190" height="40" as="geometry" />
        </mxCell>
        <mxCell id="oFuWDQxyRR_hA7nWu7py-8" value="" style="endArrow=open;startArrow=none;endFill=0;startFill=0;endSize=8;html=1;verticalAlign=bottom;labelBackgroundColor=none;strokeWidth=1;rounded=0;" edge="1" parent="1" source="oFuWDQxyRR_hA7nWu7py-3" target="oFuWDQxyRR_hA7nWu7py-5">
          <mxGeometry width="160" relative="1" as="geometry">
            <mxPoint x="380" y="105" as="sourcePoint" />
            <mxPoint x="250" y="115" as="targetPoint" />
          </mxGeometry>
        </mxCell>
        <mxCell id="oFuWDQxyRR_hA7nWu7py-9" value="[game is startable]" style="endArrow=open;startArrow=none;endFill=0;startFill=0;endSize=8;html=1;verticalAlign=bottom;labelBackgroundColor=none;strokeWidth=1;rounded=0;entryX=0;entryY=0;entryDx=0;entryDy=0;" edge="1" parent="1" source="oFuWDQxyRR_hA7nWu7py-5" target="oFuWDQxyRR_hA7nWu7py-14">
          <mxGeometry width="160" relative="1" as="geometry">
            <mxPoint x="320" y="120" as="sourcePoint" />
            <mxPoint x="431.10000000000014" y="222.78999999999996" as="targetPoint" />
            <Array as="points">
              <mxPoint x="435" y="170" />
              <mxPoint x="330" y="170" />
            </Array>
          </mxGeometry>
        </mxCell>
        <mxCell id="oFuWDQxyRR_hA7nWu7py-10" value="" style="html=1;dashed=0;rounded=1;absoluteArcSize=1;arcSize=20;verticalAlign=top;align=left;whiteSpace=wrap;spacing=3;" vertex="1" parent="1">
          <mxGeometry x="260" y="195" width="250" height="160" as="geometry" />
        </mxCell>
        <mxCell id="oFuWDQxyRR_hA7nWu7py-11" value="" style="group;resizeWidth=0;resizeHeight=0;html=1;" vertex="1" parent="oFuWDQxyRR_hA7nWu7py-10">
          <mxGeometry width="80" height="20" relative="1" as="geometry">
            <mxPoint x="30" y="-10" as="offset" />
          </mxGeometry>
        </mxCell>
        <mxCell id="oFuWDQxyRR_hA7nWu7py-12" value="" style="resizeWidth=0;resizeHeight=0;points=[[0,0],[0.5,0],[1,0]];html=1;whiteSpace=wrap;" vertex="1" parent="oFuWDQxyRR_hA7nWu7py-11">
          <mxGeometry width="20" height="20" relative="1" as="geometry">
            <mxPoint as="offset" />
          </mxGeometry>
        </mxCell>
        <mxCell id="oFuWDQxyRR_hA7nWu7py-13" value="" style="resizeWidth=0;resizeHeight=0;points=[[0,0],[0.5,0],[1,0]];html=1;whiteSpace=wrap;" vertex="1" parent="oFuWDQxyRR_hA7nWu7py-11">
          <mxGeometry width="20" height="20" relative="1" as="geometry">
            <mxPoint x="20" as="offset" />
          </mxGeometry>
        </mxCell>
        <mxCell id="oFuWDQxyRR_hA7nWu7py-14" value="" style="resizeWidth=0;resizeHeight=0;points=[[0,0],[0.5,0],[1,0]];html=1;whiteSpace=wrap;" vertex="1" parent="oFuWDQxyRR_hA7nWu7py-11">
          <mxGeometry width="20" height="20" relative="1" as="geometry">
            <mxPoint x="40" as="offset" />
          </mxGeometry>
        </mxCell>
        <mxCell id="oFuWDQxyRR_hA7nWu7py-15" value="" style="resizeWidth=0;resizeHeight=0;points=[[0,0],[0.5,0],[1,0]];html=1;whiteSpace=wrap;" vertex="1" parent="oFuWDQxyRR_hA7nWu7py-11">
          <mxGeometry width="20" height="20" relative="1" as="geometry">
            <mxPoint x="60" as="offset" />
          </mxGeometry>
        </mxCell>
        <mxCell id="oFuWDQxyRR_hA7nWu7py-16" value="" style="group;resizeWidth=0;resizeHeight=0;html=1;" vertex="1" parent="oFuWDQxyRR_hA7nWu7py-10">
          <mxGeometry y="1" width="80" height="20" relative="1" as="geometry">
            <mxPoint x="30" y="-10" as="offset" />
          </mxGeometry>
        </mxCell>
        <mxCell id="oFuWDQxyRR_hA7nWu7py-17" value="" style="resizeWidth=0;resizeHeight=0;points=[[0,1],[0.5,1],[1,1]];html=1;whiteSpace=wrap;" vertex="1" parent="oFuWDQxyRR_hA7nWu7py-16">
          <mxGeometry width="20" height="20" relative="1" as="geometry">
            <mxPoint as="offset" />
          </mxGeometry>
        </mxCell>
        <mxCell id="oFuWDQxyRR_hA7nWu7py-18" value="" style="resizeWidth=0;resizeHeight=0;points=[[0,1],[0.5,1],[1,1]];html=1;whiteSpace=wrap;" vertex="1" parent="oFuWDQxyRR_hA7nWu7py-16">
          <mxGeometry width="20" height="20" relative="1" as="geometry">
            <mxPoint x="20" as="offset" />
          </mxGeometry>
        </mxCell>
        <mxCell id="oFuWDQxyRR_hA7nWu7py-19" value="" style="resizeWidth=0;resizeHeight=0;points=[[0,1],[0.5,1],[1,1]];html=1;whiteSpace=wrap;" vertex="1" parent="oFuWDQxyRR_hA7nWu7py-16">
          <mxGeometry width="20" height="20" relative="1" as="geometry">
            <mxPoint x="40" as="offset" />
          </mxGeometry>
        </mxCell>
        <mxCell id="oFuWDQxyRR_hA7nWu7py-20" value="" style="resizeWidth=0;resizeHeight=0;points=[[0,1],[0.5,1],[1,1]];html=1;whiteSpace=wrap;" vertex="1" parent="oFuWDQxyRR_hA7nWu7py-16">
          <mxGeometry width="20" height="20" relative="1" as="geometry">
            <mxPoint x="60" as="offset" />
          </mxGeometry>
        </mxCell>
        <mxCell id="oFuWDQxyRR_hA7nWu7py-21" value="... inform player the game will start in X seconds." style="html=1;shape=mxgraph.infographic.ribbonSimple;notch1=0;notch2=20;align=center;verticalAlign=middle;fontSize=14;fontStyle=0;fillColor=#FFFFFF;whiteSpace=wrap;" vertex="1" parent="oFuWDQxyRR_hA7nWu7py-10">
          <mxGeometry x="87.99581757508342" y="74.9957894736842" width="153.22580645161287" height="67.36842105263158" as="geometry" />
        </mxCell>
        <mxCell id="oFuWDQxyRR_hA7nWu7py-60" value="For each player in the game .." style="endArrow=open;startArrow=none;endFill=0;startFill=0;endSize=8;html=1;verticalAlign=bottom;labelBackgroundColor=none;strokeWidth=1;rounded=0;exitX=0.5;exitY=1;exitDx=0;exitDy=0;" edge="1" parent="oFuWDQxyRR_hA7nWu7py-10" source="oFuWDQxyRR_hA7nWu7py-11" target="oFuWDQxyRR_hA7nWu7py-21">
          <mxGeometry width="160" relative="1" as="geometry">
            <mxPoint x="-115" y="145" as="sourcePoint" />
            <mxPoint x="-115" y="205" as="targetPoint" />
          </mxGeometry>
        </mxCell>
        <mxCell id="oFuWDQxyRR_hA7nWu7py-31" value="" style="html=1;align=center;verticalAlign=top;rounded=1;absoluteArcSize=1;arcSize=20;dashed=1;whiteSpace=wrap;" vertex="1" parent="1">
          <mxGeometry x="230" y="410" width="190" height="320" as="geometry" />
        </mxCell>
        <mxCell id="oFuWDQxyRR_hA7nWu7py-27" value="X sec" style="shape=collate;html=1;align=center;" vertex="1" parent="1">
          <mxGeometry x="310" y="445" width="40" height="40" as="geometry" />
        </mxCell>
        <mxCell id="oFuWDQxyRR_hA7nWu7py-28" value="Mark game as having started, making it not leavable." style="html=1;align=center;verticalAlign=top;rounded=1;absoluteArcSize=1;arcSize=10;dashed=0;whiteSpace=wrap;" vertex="1" parent="1">
          <mxGeometry x="460" y="430" width="100" height="70" as="geometry" />
        </mxCell>
        <mxCell id="oFuWDQxyRR_hA7nWu7py-29" value="" style="endArrow=open;startArrow=none;endFill=0;startFill=0;endSize=8;html=1;verticalAlign=bottom;labelBackgroundColor=none;strokeWidth=1;rounded=0;" edge="1" parent="1" source="oFuWDQxyRR_hA7nWu7py-27" target="oFuWDQxyRR_hA7nWu7py-28">
          <mxGeometry width="160" relative="1" as="geometry">
            <mxPoint x="530" y="370" as="sourcePoint" />
            <mxPoint x="530" y="450" as="targetPoint" />
          </mxGeometry>
        </mxCell>
        <mxCell id="oFuWDQxyRR_hA7nWu7py-30" value="Player leave game signal." style="html=1;shape=mxgraph.infographic.ribbonSimple;notch1=20;notch2=0;align=center;verticalAlign=middle;fontSize=14;fontStyle=0;fillColor=#FFFFFF;flipH=0;spacingRight=0;spacingLeft=14;whiteSpace=wrap;" vertex="1" parent="1">
          <mxGeometry x="265" y="619.9999999999999" width="120" height="60" as="geometry" />
        </mxCell>
        <mxCell id="oFuWDQxyRR_hA7nWu7py-32" value="" style="shape=mxgraph.lean_mapping.electronic_info_flow_edge;html=1;rounded=0;" edge="1" parent="1" source="oFuWDQxyRR_hA7nWu7py-30" target="oFuWDQxyRR_hA7nWu7py-56">
          <mxGeometry width="160" relative="1" as="geometry">
            <mxPoint x="440" y="764.9999999999999" as="sourcePoint" />
            <mxPoint x="550" y="766.2499999999999" as="targetPoint" />
          </mxGeometry>
        </mxCell>
        <mxCell id="oFuWDQxyRR_hA7nWu7py-50" value="" style="endArrow=open;startArrow=none;endFill=0;startFill=0;endSize=8;html=1;verticalAlign=bottom;labelBackgroundColor=none;strokeWidth=1;rounded=0;exitX=0.5;exitY=1;exitDx=0;exitDy=0;" edge="1" parent="1" source="oFuWDQxyRR_hA7nWu7py-16" target="oFuWDQxyRR_hA7nWu7py-27">
          <mxGeometry width="160" relative="1" as="geometry">
            <mxPoint x="307.5" y="125" as="sourcePoint" />
            <mxPoint x="490" y="395" as="targetPoint" />
            <Array as="points">
              <mxPoint x="330" y="395" />
            </Array>
          </mxGeometry>
        </mxCell>
        <mxCell id="oFuWDQxyRR_hA7nWu7py-53" value="Start Game" style="html=1;align=center;verticalAlign=top;rounded=1;absoluteArcSize=1;arcSize=10;dashed=0;whiteSpace=wrap;" vertex="1" parent="1">
          <mxGeometry x="590" y="449.9999999999999" width="100" height="30" as="geometry" />
        </mxCell>
        <mxCell id="oFuWDQxyRR_hA7nWu7py-55" value="" style="endArrow=open;startArrow=none;endFill=0;startFill=0;endSize=8;html=1;verticalAlign=bottom;labelBackgroundColor=none;strokeWidth=1;rounded=0;" edge="1" parent="1" source="oFuWDQxyRR_hA7nWu7py-28" target="oFuWDQxyRR_hA7nWu7py-53">
          <mxGeometry width="160" relative="1" as="geometry">
            <mxPoint x="520" y="469.99999999999994" as="sourcePoint" />
            <mxPoint x="400" y="469.99999999999994" as="targetPoint" />
          </mxGeometry>
        </mxCell>
        <mxCell id="oFuWDQxyRR_hA7nWu7py-56" value="Leave Game" style="shape=mxgraph.uml25.behaviorAction;html=1;rounded=1;absoluteArcSize=1;arcSize=10;align=left;spacingLeft=5;whiteSpace=wrap;" vertex="1" parent="1">
          <mxGeometry x="567.5" y="620" width="145" height="60" as="geometry" />
        </mxCell>
        <mxCell id="oFuWDQxyRR_hA7nWu7py-57" value="" style="ellipse;html=1;shape=endState;fillColor=strokeColor;" vertex="1" parent="1">
          <mxGeometry x="625" y="534.9999999999999" width="30" height="30" as="geometry" />
        </mxCell>
        <mxCell id="oFuWDQxyRR_hA7nWu7py-58" value="" style="endArrow=open;startArrow=none;endFill=0;startFill=0;endSize=8;html=1;verticalAlign=bottom;labelBackgroundColor=none;strokeWidth=1;rounded=0;" edge="1" parent="1" source="oFuWDQxyRR_hA7nWu7py-56" target="oFuWDQxyRR_hA7nWu7py-57">
          <mxGeometry width="160" relative="1" as="geometry">
            <mxPoint x="530" y="494.99999999999994" as="sourcePoint" />
            <mxPoint x="530" y="544.9999999999999" as="targetPoint" />
          </mxGeometry>
        </mxCell>
        <mxCell id="oFuWDQxyRR_hA7nWu7py-59" value="" style="endArrow=open;startArrow=none;endFill=0;startFill=0;endSize=8;html=1;verticalAlign=bottom;labelBackgroundColor=none;strokeWidth=1;rounded=0;" edge="1" parent="1" source="oFuWDQxyRR_hA7nWu7py-53" target="oFuWDQxyRR_hA7nWu7py-57">
          <mxGeometry width="160" relative="1" as="geometry">
            <mxPoint x="585" y="774.9999999999999" as="sourcePoint" />
            <mxPoint x="585" y="674.9999999999999" as="targetPoint" />
          </mxGeometry>
        </mxCell>
      </root>
    </mxGraphModel>
  </diagram>
</mxfile>
